<svg xmlns="http://www.w3.org/2000/svg" width="35.076" height="35.076" viewBox="0 0 35.076 35.076"><defs><style>.a{fill:none;}.b,.c{fill:#2950af;}.b{opacity:0.3;}</style></defs><path class="a" d="M0,0H35.076V35.076H0Z"/><path class="b" d="M15.692,4A11.667,11.667,0,0,0,6.4,22.751c2.09-2.543,7.161-3.405,9.3-3.405s7.205.862,9.3,3.405A11.667,11.667,0,0,0,15.692,4Zm0,13.154a5.115,5.115,0,1,1,5.115-5.115A5.1,5.1,0,0,1,15.692,17.154Z" transform="translate(1.846 1.846)"/><path class="c" d="M16.615,2A14.615,14.615,0,1,0,31.23,16.615,14.62,14.62,0,0,0,16.615,2ZM9.41,25.793c.628-1.315,4.458-2.6,7.205-2.6s6.591,1.286,7.205,2.6a11.583,11.583,0,0,1-14.411,0Zm16.5-2.119c-2.09-2.543-7.161-3.405-9.3-3.405s-7.205.862-9.3,3.405a11.692,11.692,0,1,1,18.59,0Zm-9.3-15.828a5.115,5.115,0,1,0,5.115,5.115A5.1,5.1,0,0,0,16.615,7.846Zm0,7.308a2.192,2.192,0,1,1,2.192-2.192A2.189,2.189,0,0,1,16.615,15.154Z" transform="translate(0.923 0.923)"/></svg>