<svg xmlns="http://www.w3.org/2000/svg" width="35.076" height="35.076" viewBox="0 0 35.076 35.076"><defs><style>.a{fill:none;}.b,.c{fill:#2950af;}.b{opacity:0.3;}</style></defs><path class="a" d="M0,0H35.076V35.076H0Z"/><path class="b" d="M6,24.615H23.538V10H6Zm8.769-10.231a2.923,2.923,0,1,1-2.923,2.923A2.932,2.932,0,0,1,14.769,14.385Z" transform="translate(2.769 4.615)"/><path class="c" d="M24.461,11.231H23V8.308a7.308,7.308,0,1,0-14.615,0v2.923H6.923A2.932,2.932,0,0,0,4,14.154V28.769a2.932,2.932,0,0,0,2.923,2.923H24.461a2.932,2.932,0,0,0,2.923-2.923V14.154A2.932,2.932,0,0,0,24.461,11.231ZM11.308,8.308a4.385,4.385,0,1,1,8.769,0v2.923H11.308ZM24.461,28.769H6.923V14.154H24.461Zm-8.769-4.385a2.923,2.923,0,1,0-2.923-2.923A2.932,2.932,0,0,0,15.692,24.384Z" transform="translate(1.846 0.462)"/></svg>