<svg xmlns="http://www.w3.org/2000/svg" width="146" height="52.681" viewBox="0 0 146 52.681"><defs><style>.a{fill:#ff5833;}.a,.b,.e{fill-rule:evenodd;}.b{fill:#2950af;}.c,.d{fill:#1d1d1b;}.d{font-size:8px;font-family:Circe-Regular, Circe;}.e{fill:#f4f2f3;}</style></defs><g transform="translate(0 -0.014)"><path class="a" d="M2.857,914.244l7.15,2.6,7.15,2.6c1.574.573,2.865,2.915,2.865,5.2v24.9c0,2.288-1.29,3.682-2.863,3.11l-7.152-2.6-7.152-2.6C1.281,946.877,0,944.547,0,942.262V917.354c0-2.278,1.284-3.683,2.857-3.11Zm3.569,1.3-3.569-1.3c-1.574-.573-2.857.832-2.857,3.11v-1.681c0-2.291,1.388-4.675,3.088-5.294l2.53-.921c-1.149.418,1.009-.366.131-.046a13.337,13.337,0,0,0-1.939.8,2.424,2.424,0,0,0,.138,4.322,19.491,19.491,0,0,0,2.478,1.008Z" transform="translate(0 -900.09)"/><path class="b" d="M525.431,8.291,547.762.163c1.7-.619,3.1.751,3.1,3.045V28.171c0,2.294-1.4,4.672-3.1,5.288-2.908,1.054-5.4,1.965-8.353,3.04,0-4.148-.07-9.153-.027-13.3.027-2.616-1.468-4.811-2.973-5.359l-6.872-2.5c-.812-.3-5.3-1.9-6.06-2.312a2.184,2.184,0,0,1,.116-4.064l1.966-.714c.878-.32-1.279.464-.131.046Z" transform="translate(-516.855 0)"/><path class="c" d="M4725.681,285.757V268.241h7.156a6.914,6.914,0,0,1,4.9,1.676,5.763,5.763,0,0,1,1.8,4.429,5.5,5.5,0,0,1-2,4.542,7.836,7.836,0,0,1-5.08,1.614h-2.928v5.255h-3.854Zm3.854-8.683h3.052a3.179,3.179,0,0,0,2.241-.751,2.534,2.534,0,0,0,.813-1.952,2.415,2.415,0,0,0-.826-1.964,3.5,3.5,0,0,0-2.3-.688h-2.978v5.355Zm16.014,8.933a4.947,4.947,0,0,1-3.29-1.1,3.767,3.767,0,0,1-1.314-3.053,3.72,3.72,0,0,1,1.464-3.2,6.515,6.515,0,0,1,3.94-1.076,10.014,10.014,0,0,1,3.278.551V277.9q0-2.452-2.877-2.452a10.77,10.77,0,0,0-3.7.726l-.952-2.9a12.815,12.815,0,0,1,5.205-1.076,6.155,6.155,0,0,1,4.529,1.5,5.8,5.8,0,0,1,1.452,4.279v7.782H4749.6v-1.451a5.18,5.18,0,0,1-4.054,1.7Zm1.152-2.627a3.33,3.33,0,0,0,2.151-.663,2.072,2.072,0,0,0,.826-1.689v-.676a5.691,5.691,0,0,0-2.427-.5,3.317,3.317,0,0,0-1.94.488,1.625,1.625,0,0,0-.687,1.414,1.414,1.414,0,0,0,.575,1.189A2.413,2.413,0,0,0,4746.7,283.38Zm12.561,6.456a6.559,6.559,0,0,1-3.378-.926l1.277-2.753a3.2,3.2,0,0,0,1.625.525,1.4,1.4,0,0,0,1.326-.876l-5.255-13.462h4.03l3.052,9.134,2.927-9.134h3.954l-5.155,13.738a7.108,7.108,0,0,1-1.752,2.915,3.934,3.934,0,0,1-2.652.838Zm45.529-5.805a7.649,7.649,0,0,1-10.359.012,6.963,6.963,0,0,1,.025-9.922,7.65,7.65,0,0,1,10.36-.013,6.964,6.964,0,0,1-.025,9.922Zm-5.142-1.251a3.224,3.224,0,0,0,2.527-1.063,3.816,3.816,0,0,0,.951-2.64,3.756,3.756,0,0,0-.988-2.615,3.277,3.277,0,0,0-2.54-1.088,3.225,3.225,0,0,0-2.527,1.064,3.813,3.813,0,0,0-.951,2.64,3.756,3.756,0,0,0,.988,2.615A3.277,3.277,0,0,0,4799.648,282.779Zm17.967,3.228a5.236,5.236,0,0,1-4.18-2v1.752h-3.8V267.49h3.8v6.781a4.959,4.959,0,0,1,4.18-2.177,5.759,5.759,0,0,1,4.3,1.877,8.1,8.1,0,0,1,.012,10.172,5.766,5.766,0,0,1-4.316,1.864Zm-3.291-4.266a3,3,0,0,0,2.315,1.039,3.034,3.034,0,0,0,2.327-1.039,3.863,3.863,0,0,0,.95-2.715,3.793,3.793,0,0,0-.95-2.665,3.034,3.034,0,0,0-2.327-1.038,3,3,0,0,0-2.315,1.038,3.893,3.893,0,0,0-.938,2.715A3.821,3.821,0,0,0,4814.325,281.741Zm-43.4,4.016V272.469h3.37v1.468a5.155,5.155,0,0,1,1.664-1.38,4.437,4.437,0,0,1,2.031-.463,4.584,4.584,0,0,1,2.152.471,4.219,4.219,0,0,1,1.552,1.48,4.435,4.435,0,0,1,3.774-1.952,4.048,4.048,0,0,1,4.35,4.375v9.288h-3.5V277.2a2.058,2.058,0,0,0-.52-1.5,1.924,1.924,0,0,0-1.447-.53,2.1,2.1,0,0,0-1.648.68,2.653,2.653,0,0,0-.612,1.852v8.053H4778.6v-8.533a2.125,2.125,0,0,0-.508-1.514,1.857,1.857,0,0,0-1.422-.538,2.087,2.087,0,0,0-1.644.684,2.722,2.722,0,0,0-.6,1.873v8.028h-3.5Z" transform="translate(-4677.721 -264.761)"/><text class="d" transform="translate(47.531 35.635)"><tspan x="0" y="0">Smart Payments</tspan></text><path class="e" d="M385.883,2775.139a.645.645,0,0,0,.547-.535,10.553,10.553,0,0,0,.376-3.014,14.293,14.293,0,0,0-1.079-5.151c-.15-.367-.449-.556-.667-.416a.8.8,0,0,0-.12.926,11.966,11.966,0,0,1,.907,4.318,9.034,9.034,0,0,1-.256,2.3q-2.2-3.256-4.4-6.508a.781.781,0,0,0-.673-.415c-.23.026-.406.228-.475.539a10.008,10.008,0,0,0-.216,2.125,11.011,11.011,0,0,0,.677,3.431c.144.372.439.568.661.443s.286-.533.144-.907a8.687,8.687,0,0,1-.523-2.617,8.8,8.8,0,0,1,.094-1.3q2.129,3.157,4.269,6.316a1.1,1.1,0,0,0,.5.431.541.541,0,0,0,.23.034h0Z" transform="translate(-375.975 -2737.891)"/><path class="e" d="M1098.623,2663.047a13.155,13.155,0,0,0,1.448-6.237.073.073,0,0,1,0-.02,20.579,20.579,0,0,0-1.446-7.292c-.148-.368-.447-.563-.665-.434a.785.785,0,0,0-.132.918,18.259,18.259,0,0,1,1.286,6.469,11.691,11.691,0,0,1-1.286,5.532,1.035,1.035,0,0,0,.132,1.014.6.6,0,0,0,.266.213.313.313,0,0,0,.4-.164Z" transform="translate(-1086.604 -2622.126)"/><path class="e" d="M1328.789,2565.939a.472.472,0,0,1-.082-.04,1.032,1.032,0,0,1-.391-.946,19.715,19.715,0,0,0,.148-2.314,24.146,24.146,0,0,0-1.626-8.422c-.144-.375-.08-.78.142-.908s.519.072.663.443a27.085,27.085,0,0,1,1.312,4.578,25.848,25.848,0,0,1,.469,4.65V2563a21.813,21.813,0,0,1-.162,2.541c-.04.321-.245.486-.473.4h0Z" transform="translate(-1313.297 -2527.347)"/><path class="e" d="M1327.784,3959.415a13.143,13.143,0,0,0,.947-2.277,1.074,1.074,0,0,0-.26-1,.35.35,0,0,0-.627.147,12.2,12.2,0,0,1-.865,2.082,1.03,1.03,0,0,0,.14,1.012.6.6,0,0,0,.26.207.312.312,0,0,0,.4-.169Z" transform="translate(-1313.435 -3915.832)"/></g></svg>